<svg xmlns="http://www.w3.org/2000/svg" xmlns:xlink="http://www.w3.org/1999/xlink" width="2462" zoomAndPan="magnify" viewBox="0 0 1846.5 960.749967" height="1281" preserveAspectRatio="xMidYMid meet" version="1.0"><defs><g/><clipPath id="04a9e268f0"><path d="M 0 0.00390625 L 1846 0.00390625 L 1846 960.496094 L 0 960.496094 Z M 0 0.00390625 " clip-rule="nonzero"/></clipPath><clipPath id="bf1b2a2533"><path d="M 388.324219 432.527344 L 1462.589844 432.527344 L 1462.589844 572.84375 L 388.324219 572.84375 Z M 388.324219 432.527344 " clip-rule="nonzero"/></clipPath><clipPath id="db2c703fbb"><path d="M 0.324219 0.527344 L 1074.589844 0.527344 L 1074.589844 140.84375 L 0.324219 140.84375 Z M 0.324219 0.527344 " clip-rule="nonzero"/></clipPath><clipPath id="05004bb79f"><rect x="0" width="1075" y="0" height="141"/></clipPath><clipPath id="add312dc45"><path d="M 856.285156 174 L 896 174 L 896 196 L 856.285156 196 Z M 856.285156 174 " clip-rule="nonzero"/></clipPath><clipPath id="1b95c4622e"><path d="M 898 0.00390625 L 1185 0.00390625 L 1185 374.902344 L 898 374.902344 Z M 898 0.00390625 " clip-rule="nonzero"/></clipPath></defs><g clip-path="url(#04a9e268f0)"><path fill="#ffffff" d="M 0 0.00390625 L 1846 0.00390625 L 1846 960.496094 L 0 960.496094 Z M 0 0.00390625 " fill-opacity="1" fill-rule="nonzero"/></g><g fill="#684915" fill-opacity="1"><g transform="translate(375.398416, 660.704739)"><g><path d="M 243.4375 -4.5 C 246.769531 -4.5 248.4375 -3 248.4375 0 C 248.4375 3 246.769531 4.5 243.4375 4.5 L 180.453125 4.5 C 180.453125 4.5 180.285156 4.5 179.953125 4.5 L 168.953125 4.5 C 165.953125 4.5 164.453125 3 164.453125 0 C 164.453125 -3 165.953125 -4.5 168.953125 -4.5 L 175.453125 -4.5 L 175.453125 -167.953125 L 80.484375 -167.953125 L 80.484375 -4.5 L 86.96875 -4.5 C 90.300781 -4.5 91.96875 -3 91.96875 0 C 91.96875 3 90.300781 4.5 86.96875 4.5 L 24 4.5 C 24 4.5 23.832031 4.5 23.5 4.5 L 12.5 4.5 C 9.5 4.5 8 3 8 0 C 8 -3 9.5 -4.5 12.5 -4.5 L 19 -4.5 L 19 -340.40625 L 12.5 -340.40625 C 9.5 -340.40625 8 -342.070312 8 -345.40625 C 8 -348.40625 9.5 -349.90625 12.5 -349.90625 L 86.96875 -349.90625 C 90.300781 -349.90625 91.96875 -348.40625 91.96875 -345.40625 C 91.96875 -342.070312 90.300781 -340.40625 86.96875 -340.40625 L 80.484375 -340.40625 L 80.484375 -177.453125 L 175.453125 -177.453125 L 175.453125 -340.40625 L 168.953125 -340.40625 C 165.953125 -340.40625 164.453125 -342.070312 164.453125 -345.40625 C 164.453125 -348.40625 165.953125 -349.90625 168.953125 -349.90625 L 243.4375 -349.90625 C 246.769531 -349.90625 248.4375 -348.40625 248.4375 -345.40625 C 248.4375 -342.070312 246.769531 -340.40625 243.4375 -340.40625 L 236.9375 -340.40625 L 236.9375 -4.5 Z M 243.4375 -4.5 "/></g></g></g><g fill="#684915" fill-opacity="1"><g transform="translate(632.325874, 660.704739)"><g><path d="M 477.859375 -349.90625 C 481.191406 -349.90625 482.859375 -348.40625 482.859375 -345.40625 C 482.859375 -342.070312 481.191406 -340.40625 477.859375 -340.40625 L 471.875 -340.40625 L 471.875 -182.953125 C 471.875 -182.953125 471.875 -178.535156 471.875 -169.703125 C 471.875 -160.867188 471.875 -149.535156 471.875 -135.703125 C 471.875 -121.878906 471.875 -107.132812 471.875 -91.46875 C 471.875 -75.8125 471.875 -61.066406 471.875 -47.234375 C 471.875 -33.410156 471.875 -22.082031 471.875 -13.25 C 471.875 -4.414062 471.875 0 471.875 0 C 471.875 3 470.207031 4.5 466.875 4.5 L 433.375 4.5 C 431.375 4.5 429.875 3.664062 428.875 2 L 286.921875 -320.40625 C 286.921875 -320.738281 286.835938 -320.988281 286.671875 -321.15625 C 286.503906 -321.320312 286.421875 -321.40625 286.421875 -321.40625 L 286.421875 -4.5 L 292.921875 -4.5 C 295.921875 -4.5 297.421875 -3 297.421875 0 C 297.421875 3.332031 295.921875 5 292.921875 5 L 270.921875 5 C 267.585938 5 265.921875 3.332031 265.921875 0 C 265.921875 -3 267.585938 -4.5 270.921875 -4.5 L 276.921875 -4.5 L 276.921875 -338.90625 C 266.585938 -354.5625 253.003906 -367.140625 236.171875 -376.640625 C 219.347656 -386.140625 201.109375 -391.054688 181.453125 -391.390625 C 180.453125 -391.390625 179.617188 -391.390625 178.953125 -391.390625 C 158.285156 -391.390625 138.867188 -387.472656 120.703125 -379.640625 C 102.546875 -371.804688 86.550781 -360.972656 72.71875 -347.140625 C 58.894531 -333.316406 48.066406 -317.320312 40.234375 -299.15625 C 32.398438 -281 28.484375 -261.59375 28.484375 -240.9375 C 28.484375 -217.601562 33.484375 -195.769531 43.484375 -175.4375 C 53.484375 -155.113281 67.144531 -137.867188 84.46875 -123.703125 C 101.800781 -109.546875 121.796875 -99.800781 144.453125 -94.46875 L 100.96875 -238.9375 L 74.484375 -151.453125 C 73.484375 -148.453125 71.484375 -147.453125 68.484375 -148.453125 C 65.484375 -149.453125 64.484375 -151.453125 65.484375 -154.453125 L 123.46875 -346.40625 C 123.46875 -346.738281 123.632812 -347.070312 123.96875 -347.40625 C 123.96875 -347.738281 124.132812 -347.90625 124.46875 -347.90625 C 124.46875 -347.90625 124.46875 -348.070312 124.46875 -348.40625 C 124.800781 -348.40625 124.96875 -348.570312 124.96875 -348.90625 C 125.632812 -349.238281 126.300781 -349.570312 126.96875 -349.90625 C 126.96875 -349.90625 127.132812 -349.90625 127.46875 -349.90625 C 127.46875 -349.90625 127.632812 -349.90625 127.96875 -349.90625 C 127.96875 -349.90625 128.132812 -349.90625 128.46875 -349.90625 C 129.132812 -349.90625 129.132812 -349.90625 128.46875 -349.90625 C 129.46875 -349.90625 130.300781 -349.570312 130.96875 -348.90625 C 131.300781 -348.570312 131.46875 -348.40625 131.46875 -348.40625 C 131.800781 -348.070312 131.96875 -347.90625 131.96875 -347.90625 C 131.96875 -347.90625 131.96875 -347.738281 131.96875 -347.40625 C 132.300781 -347.40625 132.46875 -347.40625 132.46875 -347.40625 C 132.46875 -347.070312 132.46875 -346.738281 132.46875 -346.40625 L 235.9375 -4.5 L 243.4375 -4.5 C 246.769531 -4.5 248.4375 -3 248.4375 0 C 248.4375 3 246.769531 4.5 243.4375 4.5 L 232.4375 4.5 C 232.4375 4.832031 232.4375 5 232.4375 5 L 177.953125 5 C 177.953125 5 177.785156 4.832031 177.453125 4.5 L 166.953125 4.5 C 163.617188 4.5 161.953125 3 161.953125 0 C 161.953125 -3 163.617188 -4.5 166.953125 -4.5 L 171.453125 -4.5 L 147.453125 -84.46875 C 122.796875 -89.132812 100.71875 -99.050781 81.21875 -114.21875 C 61.726562 -129.382812 46.484375 -147.960938 35.484375 -169.953125 C 24.492188 -191.941406 19 -215.601562 19 -240.9375 C 19 -262.925781 23.160156 -283.582031 31.484375 -302.90625 C 39.816406 -322.238281 51.3125 -339.234375 65.96875 -353.890625 C 80.632812 -368.554688 97.628906 -380.054688 116.953125 -388.390625 C 136.285156 -396.722656 156.953125 -400.890625 178.953125 -400.890625 C 179.285156 -400.890625 180.117188 -400.890625 181.453125 -400.890625 C 223.441406 -400.222656 261.929688 -388.390625 296.921875 -365.390625 C 330.910156 -342.734375 356.398438 -313.078125 373.390625 -276.421875 L 462.375 -75.484375 L 462.375 -181.953125 L 410.390625 -300.421875 C 409.054688 -303.421875 409.890625 -305.414062 412.890625 -306.40625 C 415.546875 -307.738281 417.539062 -307.078125 418.875 -304.421875 L 462.375 -205.4375 L 462.375 -340.40625 L 455.875 -340.40625 C 452.875 -340.40625 451.375 -342.070312 451.375 -345.40625 C 451.375 -348.40625 452.875 -349.90625 455.875 -349.90625 Z M 60.984375 -122.46875 C 63.984375 -121.46875 64.984375 -119.46875 63.984375 -116.46875 L 29.984375 -4.5 L 34.984375 -4.5 C 37.984375 -4.5 39.484375 -3 39.484375 0 C 39.484375 3 37.984375 4.5 34.984375 4.5 L 24 4.5 C 23.664062 4.832031 23.664062 5 24 5 C 24 5 23.832031 4.832031 23.5 4.5 L 12.5 4.5 C 9.5 4.5 8 3 8 0 C 8 -3 9.5 -4.5 12.5 -4.5 L 20.5 -4.5 L 54.984375 -119.46875 C 55.984375 -122.46875 57.984375 -123.46875 60.984375 -122.46875 Z M 60.984375 -122.46875 "/></g></g></g><g fill="#684915" fill-opacity="1"><g transform="translate(1123.687062, 660.704739)"><g><path d="M 86.96875 -4.5 C 90.300781 -4.5 91.96875 -3 91.96875 0 C 91.96875 3 90.300781 4.5 86.96875 4.5 L 24 4.5 C 24 4.5 23.832031 4.5 23.5 4.5 L 12.5 4.5 C 9.5 4.5 8 3 8 0 C 8 -3 9.5 -4.5 12.5 -4.5 L 19 -4.5 L 19 -340.40625 L 12.5 -340.40625 C 9.5 -340.40625 8 -342.070312 8 -345.40625 C 8 -348.40625 9.5 -349.90625 12.5 -349.90625 L 86.96875 -349.90625 C 90.300781 -349.90625 91.96875 -348.40625 91.96875 -345.40625 C 91.96875 -342.070312 90.300781 -340.40625 86.96875 -340.40625 L 80.484375 -340.40625 L 80.484375 -4.5 Z M 86.96875 -4.5 "/></g></g></g><g fill="#684915" fill-opacity="1"><g transform="translate(1224.158661, 660.704739)"><g><path d="M 153.953125 -156.953125 C 150.953125 -156.953125 149.453125 -158.453125 149.453125 -161.453125 L 149.453125 -167.953125 L 132.96875 -167.953125 L 132.96875 -42.984375 C 132.96875 -39.648438 131.300781 -37.984375 127.96875 -37.984375 C 124.96875 -37.984375 123.46875 -39.648438 123.46875 -42.984375 L 123.46875 -302.421875 C 123.46875 -305.410156 124.96875 -306.90625 127.96875 -306.90625 C 131.300781 -306.90625 132.96875 -305.410156 132.96875 -302.421875 L 132.96875 -177.453125 L 149.453125 -177.453125 L 149.453125 -183.453125 C 149.453125 -186.785156 150.953125 -188.453125 153.953125 -188.453125 C 157.285156 -188.453125 158.953125 -186.785156 158.953125 -183.453125 L 158.953125 -161.453125 C 158.953125 -158.453125 157.285156 -156.953125 153.953125 -156.953125 Z M 227.4375 -253.421875 C 227.4375 -269.421875 223.601562 -284 215.9375 -297.15625 C 208.269531 -310.320312 197.851562 -320.820312 184.6875 -328.65625 C 171.53125 -336.488281 156.953125 -340.40625 140.953125 -340.40625 L 80.484375 -340.40625 L 80.484375 -4.5 L 140.953125 -4.5 C 156.953125 -4.5 171.53125 -8.410156 184.6875 -16.234375 C 197.851562 -24.066406 208.269531 -34.566406 215.9375 -47.734375 C 223.601562 -60.898438 227.4375 -75.476562 227.4375 -91.46875 C 227.4375 -94.800781 229.101562 -96.46875 232.4375 -96.46875 C 235.4375 -96.46875 236.9375 -94.800781 236.9375 -91.46875 L 236.9375 0 C 236.9375 3 235.4375 4.5 232.4375 4.5 L 24 4.5 C 24 4.5 23.832031 4.5 23.5 4.5 L 12.5 4.5 C 9.5 4.5 8 3 8 0 C 8 -3 9.5 -4.5 12.5 -4.5 L 19 -4.5 L 19 -340.40625 L 12.5 -340.40625 C 9.5 -340.40625 8 -342.070312 8 -345.40625 C 8 -348.40625 9.5 -349.90625 12.5 -349.90625 L 232.4375 -349.90625 C 235.4375 -349.90625 236.9375 -348.40625 236.9375 -345.40625 L 236.9375 -253.421875 C 236.9375 -250.429688 235.4375 -248.9375 232.4375 -248.9375 C 229.101562 -248.9375 227.4375 -250.429688 227.4375 -253.421875 Z M 227.4375 -253.421875 "/></g></g></g><g fill="#684915" fill-opacity="1"><g transform="translate(1470.090247, 660.704739)"><g/></g></g><g clip-path="url(#bf1b2a2533)"><g transform="matrix(1, 0, 0, 1, 388, 432)"><g clip-path="url(#05004bb79f)"><g clip-path="url(#db2c703fbb)"><path fill="#e8e4df" d="M 0.324219 0.527344 L 1074.632812 0.527344 L 1074.632812 140.84375 L 0.324219 140.84375 Z M 0.324219 0.527344 " fill-opacity="1" fill-rule="nonzero"/></g></g></g></g><g fill="#684915" fill-opacity="1"><g transform="translate(447.158653, 524.002172)"><g><path d="M 4.296875 0 L 4.296875 -4.5625 L 11 -4.5625 L 11 -43.84375 L 4.296875 -43.84375 L 4.296875 -48.40625 L 24.84375 -48.40625 L 24.84375 -43.84375 L 18.046875 -43.84375 L 18.046875 -4.5625 L 24.84375 -4.5625 L 24.84375 0 Z M 4.296875 0 "/></g></g></g><g fill="#684915" fill-opacity="1"><g transform="translate(472.691232, 524.002172)"><g><path d="M 3.53125 0 L 3.53125 -4.5625 L 10.40625 -4.5625 L 10.40625 -43.84375 L 3.53125 -43.84375 L 3.53125 -48.40625 L 18.484375 -48.40625 L 46.171875 -9.28125 L 46.171875 -43.84375 L 39.28125 -43.84375 L 39.28125 -48.40625 L 58.28125 -48.40625 L 58.28125 -43.84375 L 51.578125 -43.84375 L 51.578125 0 L 44.625 0 L 15.734375 -41.171875 L 15.734375 -4.5625 L 22.609375 -4.5625 L 22.609375 0 Z M 3.53125 0 "/></g></g></g><g fill="#684915" fill-opacity="1"><g transform="translate(529.602451, 524.002172)"><g/></g></g><g fill="#684915" fill-opacity="1"><g transform="translate(552.212085, 524.002172)"><g><path d="M 45.140625 11.515625 C 38.546875 11.515625 32.867188 7.9375 28.109375 0.78125 C 23.347656 0.488281 19.148438 -0.816406 15.515625 -3.140625 C 11.878906 -5.460938 9.085938 -8.457031 7.140625 -12.125 C 5.191406 -15.789062 4.21875 -19.773438 4.21875 -24.078125 C 4.21875 -28.597656 5.304688 -32.789062 7.484375 -36.65625 C 9.660156 -40.53125 12.738281 -43.597656 16.71875 -45.859375 C 20.707031 -48.128906 25.28125 -49.265625 30.4375 -49.265625 C 35.59375 -49.265625 40.160156 -48.128906 44.140625 -45.859375 C 48.128906 -43.597656 51.210938 -40.53125 53.390625 -36.65625 C 55.566406 -32.789062 56.65625 -28.597656 56.65625 -24.078125 C 56.65625 -19.890625 55.738281 -16.019531 53.90625 -12.46875 C 52.070312 -8.914062 49.460938 -5.960938 46.078125 -3.609375 C 42.691406 -1.265625 38.738281 0.164062 34.21875 0.6875 C 35.9375 2.75 37.609375 4.296875 39.234375 5.328125 C 40.867188 6.359375 42.835938 6.875 45.140625 6.875 C 46.453125 6.875 48.082031 6.644531 50.03125 6.1875 L 50.125 10.75 C 48.40625 11.257812 46.742188 11.515625 45.140625 11.515625 Z M 30.4375 -4.21875 C 34.269531 -4.21875 37.59375 -5.101562 40.40625 -6.875 C 43.21875 -8.65625 45.378906 -11.046875 46.890625 -14.046875 C 48.410156 -17.054688 49.171875 -20.398438 49.171875 -24.078125 C 49.171875 -27.796875 48.410156 -31.171875 46.890625 -34.203125 C 45.378906 -37.242188 43.21875 -39.664062 40.40625 -41.46875 C 37.59375 -43.28125 34.269531 -44.1875 30.4375 -44.1875 C 26.59375 -44.1875 23.265625 -43.28125 20.453125 -41.46875 C 17.648438 -39.664062 15.503906 -37.234375 14.015625 -34.171875 C 12.523438 -31.109375 11.78125 -27.710938 11.78125 -23.984375 C 11.78125 -20.253906 12.523438 -16.898438 14.015625 -13.921875 C 15.503906 -10.941406 17.648438 -8.578125 20.453125 -6.828125 C 23.265625 -5.085938 26.59375 -4.21875 30.4375 -4.21875 Z M 30.4375 -4.21875 "/></g></g></g><g fill="#684915" fill-opacity="1"><g transform="translate(609.295239, 524.002172)"><g><path d="M 28.96875 0.859375 C 22.09375 0.859375 17.003906 -0.800781 13.703125 -4.125 C 10.410156 -7.445312 8.765625 -11.914062 8.765625 -17.53125 L 8.765625 -43.84375 L 2.328125 -43.84375 L 2.328125 -48.40625 L 22.1875 -48.40625 L 22.1875 -43.84375 L 15.734375 -43.84375 L 15.734375 -16.59375 C 15.734375 -12.75 16.921875 -9.738281 19.296875 -7.5625 C 21.679688 -5.382812 24.960938 -4.296875 29.140625 -4.296875 C 33.671875 -4.296875 37.179688 -5.382812 39.671875 -7.5625 C 42.171875 -9.738281 43.421875 -12.773438 43.421875 -16.671875 L 43.421875 -43.84375 L 37.046875 -43.84375 L 37.046875 -48.40625 L 55.875 -48.40625 L 55.875 -43.84375 L 49.34375 -43.84375 L 49.34375 -16.9375 C 49.34375 -11.144531 47.492188 -6.726562 43.796875 -3.6875 C 40.097656 -0.65625 35.15625 0.859375 28.96875 0.859375 Z M 28.96875 0.859375 "/></g></g></g><g fill="#684915" fill-opacity="1"><g transform="translate(663.283502, 524.002172)"><g><path d="M 16.765625 0 L 16.765625 -4.5625 L 23.8125 -4.5625 L 23.8125 -20.71875 L 7.65625 -43.84375 L 1.203125 -43.84375 L 1.203125 -48.40625 L 21.3125 -48.40625 L 21.3125 -43.84375 L 15.21875 -43.84375 L 27.9375 -25.28125 L 40.234375 -43.84375 L 34.046875 -43.84375 L 34.046875 -48.40625 L 53.125 -48.40625 L 53.125 -43.84375 L 46.515625 -43.84375 L 30.78125 -20.796875 L 30.78125 -4.5625 L 37.90625 -4.5625 L 37.90625 0 Z M 16.765625 0 "/></g></g></g><g fill="#684915" fill-opacity="1"><g transform="translate(714.004972, 524.002172)"><g/></g></g><g fill="#684915" fill-opacity="1"><g transform="translate(736.614594, 524.002172)"><g><path d="M 3.53125 0 L 3.53125 -4.5625 L 10.40625 -4.5625 L 10.40625 -43.84375 L 3.53125 -43.84375 L 3.53125 -48.40625 L 18.484375 -48.40625 L 46.171875 -9.28125 L 46.171875 -43.84375 L 39.28125 -43.84375 L 39.28125 -48.40625 L 58.28125 -48.40625 L 58.28125 -43.84375 L 51.578125 -43.84375 L 51.578125 0 L 44.625 0 L 15.734375 -41.171875 L 15.734375 -4.5625 L 22.609375 -4.5625 L 22.609375 0 Z M 3.53125 0 "/></g></g></g><g fill="#684915" fill-opacity="1"><g transform="translate(793.525824, 524.002172)"><g><path d="M 3.359375 0 L 3.359375 -4.5625 L 10.0625 -4.5625 L 10.0625 -43.84375 L 3.359375 -43.84375 L 3.359375 -48.40625 L 23.8125 -48.40625 L 23.8125 -43.84375 L 17.109375 -43.84375 L 17.109375 -27.34375 L 42.890625 -27.34375 L 42.890625 -43.84375 L 36.109375 -43.84375 L 36.109375 -48.40625 L 56.5625 -48.40625 L 56.5625 -43.84375 L 49.859375 -43.84375 L 49.859375 -4.5625 L 56.5625 -4.5625 L 56.5625 0 L 36.109375 0 L 36.109375 -4.5625 L 42.890625 -4.5625 L 42.890625 -22.4375 L 17.109375 -22.4375 L 17.109375 -4.5625 L 23.8125 -4.5625 L 23.8125 0 Z M 3.359375 0 "/></g></g></g><g fill="#684915" fill-opacity="1"><g transform="translate(849.835258, 524.002172)"><g><path d="M 30.4375 0.953125 C 25.28125 0.953125 20.707031 -0.175781 16.71875 -2.4375 C 12.738281 -4.707031 9.660156 -7.75 7.484375 -11.5625 C 5.304688 -15.375 4.21875 -19.546875 4.21875 -24.078125 C 4.21875 -28.597656 5.304688 -32.789062 7.484375 -36.65625 C 9.660156 -40.53125 12.738281 -43.597656 16.71875 -45.859375 C 20.707031 -48.128906 25.28125 -49.265625 30.4375 -49.265625 C 35.59375 -49.265625 40.160156 -48.128906 44.140625 -45.859375 C 48.128906 -43.597656 51.210938 -40.53125 53.390625 -36.65625 C 55.566406 -32.789062 56.65625 -28.597656 56.65625 -24.078125 C 56.65625 -19.546875 55.566406 -15.375 53.390625 -11.5625 C 51.210938 -7.75 48.128906 -4.707031 44.140625 -2.4375 C 40.160156 -0.175781 35.59375 0.953125 30.4375 0.953125 Z M 30.4375 -4.21875 C 34.269531 -4.21875 37.59375 -5.101562 40.40625 -6.875 C 43.21875 -8.65625 45.378906 -11.046875 46.890625 -14.046875 C 48.410156 -17.054688 49.171875 -20.398438 49.171875 -24.078125 C 49.171875 -27.796875 48.410156 -31.171875 46.890625 -34.203125 C 45.378906 -37.242188 43.21875 -39.664062 40.40625 -41.46875 C 37.59375 -43.28125 34.269531 -44.1875 30.4375 -44.1875 C 26.59375 -44.1875 23.265625 -43.28125 20.453125 -41.46875 C 17.648438 -39.664062 15.503906 -37.234375 14.015625 -34.171875 C 12.523438 -31.109375 11.78125 -27.710938 11.78125 -23.984375 C 11.78125 -20.253906 12.523438 -16.898438 14.015625 -13.921875 C 15.503906 -10.941406 17.648438 -8.578125 20.453125 -6.828125 C 23.265625 -5.085938 26.59375 -4.21875 30.4375 -4.21875 Z M 30.4375 -4.21875 "/></g></g></g><g fill="#684915" fill-opacity="1"><g transform="translate(907.176327, 524.002172)"><g><path d="M 3.53125 0 L 3.53125 -4.5625 L 10.40625 -4.5625 L 10.40625 -43.84375 L 3.53125 -43.84375 L 3.53125 -48.40625 L 18.484375 -48.40625 L 46.171875 -9.28125 L 46.171875 -43.84375 L 39.28125 -43.84375 L 39.28125 -48.40625 L 58.28125 -48.40625 L 58.28125 -43.84375 L 51.578125 -43.84375 L 51.578125 0 L 44.625 0 L 15.734375 -41.171875 L 15.734375 -4.5625 L 22.609375 -4.5625 L 22.609375 0 Z M 3.53125 0 "/></g></g></g><g fill="#684915" fill-opacity="1"><g transform="translate(964.087535, 524.002172)"><g><path d="M 0.515625 6.796875 L 0.515625 3.265625 L 36.53125 3.265625 L 36.53125 6.796875 Z M 0.515625 6.796875 "/></g></g></g><g fill="#684915" fill-opacity="1"><g transform="translate(997.529283, 524.002172)"><g><path d="M 24.5 -27.859375 C 30.457031 -26.828125 34.738281 -25.265625 37.34375 -23.171875 C 39.957031 -21.078125 41.265625 -17.796875 41.265625 -13.328125 C 41.265625 -10.742188 40.660156 -8.378906 39.453125 -6.234375 C 38.253906 -4.085938 36.476562 -2.367188 34.125 -1.078125 C 31.78125 0.210938 29.003906 0.859375 25.796875 0.859375 C 22.804688 0.859375 20.09375 0.257812 17.65625 -0.9375 C 15.226562 -2.144531 13.238281 -3.8125 11.6875 -5.9375 L 11.6875 0 L 6.109375 0 L 6.109375 -16.328125 L 11.265625 -16.328125 C 11.609375 -12.722656 13.050781 -9.785156 15.59375 -7.515625 C 18.144531 -5.253906 21.457031 -4.125 25.53125 -4.125 C 28.507812 -4.125 30.828125 -4.835938 32.484375 -6.265625 C 34.148438 -7.703125 34.984375 -9.710938 34.984375 -12.296875 C 34.984375 -14.359375 34.609375 -15.972656 33.859375 -17.140625 C 33.117188 -18.316406 31.929688 -19.234375 30.296875 -19.890625 C 28.671875 -20.554688 26.335938 -21.148438 23.296875 -21.671875 L 21.234375 -22.015625 C 16.359375 -22.816406 12.570312 -24.375 9.875 -26.6875 C 7.1875 -29.007812 5.84375 -32.148438 5.84375 -36.109375 C 5.84375 -40.285156 7.21875 -43.535156 9.96875 -45.859375 C 12.71875 -48.179688 16.414062 -49.34375 21.0625 -49.34375 C 23.695312 -49.34375 26.085938 -48.898438 28.234375 -48.015625 C 30.390625 -47.128906 32.125 -45.851562 33.4375 -44.1875 L 33.4375 -48.40625 L 38.9375 -48.40625 L 38.9375 -34.734375 L 33.875 -34.734375 C 32.78125 -41.148438 28.625 -44.359375 21.40625 -44.359375 C 18.476562 -44.359375 16.195312 -43.671875 14.5625 -42.296875 C 12.9375 -40.921875 12.125 -39.085938 12.125 -36.796875 C 12.125 -34.390625 12.984375 -32.507812 14.703125 -31.15625 C 16.421875 -29.8125 19.03125 -28.828125 22.53125 -28.203125 Z M 24.5 -27.859375 "/></g></g></g><g fill="#684915" fill-opacity="1"><g transform="translate(1038.794155, 524.002172)"><g><path d="M 4.296875 0 L 4.296875 -4.5625 L 11 -4.5625 L 11 -43.84375 L 4.296875 -43.84375 L 4.296875 -48.40625 L 24.84375 -48.40625 L 24.84375 -43.84375 L 18.046875 -43.84375 L 18.046875 -4.5625 L 24.84375 -4.5625 L 24.84375 0 Z M 4.296875 0 "/></g></g></g><g fill="#684915" fill-opacity="1"><g transform="translate(1064.326745, 524.002172)"><g><path d="M 3.53125 0 L 3.53125 -4.5625 L 10.40625 -4.5625 L 10.40625 -43.84375 L 3.53125 -43.84375 L 3.53125 -48.40625 L 18.484375 -48.40625 L 46.171875 -9.28125 L 46.171875 -43.84375 L 39.28125 -43.84375 L 39.28125 -48.40625 L 58.28125 -48.40625 L 58.28125 -43.84375 L 51.578125 -43.84375 L 51.578125 0 L 44.625 0 L 15.734375 -41.171875 L 15.734375 -4.5625 L 22.609375 -4.5625 L 22.609375 0 Z M 3.53125 0 "/></g></g></g><g fill="#684915" fill-opacity="1"><g transform="translate(1121.237952, 524.002172)"><g><path d="M 52.265625 -13.0625 C 48.660156 -3.832031 41.097656 0.835938 29.578125 0.953125 C 24.585938 0.953125 20.171875 -0.117188 16.328125 -2.265625 C 12.492188 -4.421875 9.515625 -7.390625 7.390625 -11.171875 C 5.273438 -14.953125 4.21875 -19.3125 4.21875 -24.25 C 4.21875 -29.0625 5.257812 -33.359375 7.34375 -37.140625 C 9.4375 -40.921875 12.414062 -43.882812 16.28125 -46.03125 C 20.15625 -48.1875 24.613281 -49.265625 29.65625 -49.265625 C 33.269531 -49.265625 36.507812 -48.585938 39.375 -47.234375 C 42.238281 -45.890625 44.472656 -44.039062 46.078125 -41.6875 L 46.078125 -48.40625 L 51.234375 -48.40625 L 51.234375 -33.78125 L 46.59375 -33.609375 C 44.820312 -37.273438 42.585938 -39.941406 39.890625 -41.609375 C 37.191406 -43.273438 33.894531 -44.109375 30 -44.109375 C 26.28125 -44.109375 23 -43.234375 20.15625 -41.484375 C 17.320312 -39.734375 15.128906 -37.367188 13.578125 -34.390625 C 12.035156 -31.410156 11.265625 -28.054688 11.265625 -24.328125 C 11.265625 -20.316406 12.066406 -16.789062 13.671875 -13.75 C 15.273438 -10.71875 17.507812 -8.367188 20.375 -6.703125 C 23.238281 -5.046875 26.445312 -4.21875 30 -4.21875 C 33.894531 -4.21875 37.375 -5.132812 40.4375 -6.96875 C 43.507812 -8.800781 45.734375 -11.691406 47.109375 -15.640625 Z M 52.265625 -13.0625 "/></g></g></g><g fill="#684915" fill-opacity="1"><g transform="translate(1174.7964, 524.002172)"><g><path d="M 3.359375 0 L 3.359375 -4.5625 L 10.0625 -4.5625 L 10.0625 -43.84375 L 3.359375 -43.84375 L 3.359375 -48.40625 L 45.484375 -48.40625 L 45.484375 -34.046875 L 40.0625 -34.046875 L 40.0625 -43.84375 L 17.109375 -43.84375 L 17.109375 -27.421875 L 32.15625 -27.421875 L 32.15625 -33.09375 L 35.671875 -33.09375 L 35.671875 -16.9375 L 32.15625 -16.9375 L 32.15625 -22.703125 L 17.109375 -22.703125 L 17.109375 -4.5625 L 40.484375 -4.5625 L 40.484375 -14.609375 L 45.90625 -14.609375 L 45.90625 0 Z M 3.359375 0 "/></g></g></g><g fill="#684915" fill-opacity="1"><g transform="translate(1221.219374, 524.002172)"><g/></g></g><g fill="#684915" fill-opacity="1"><g transform="translate(1243.829065, 524.002172)"><g><path d="M 35.328125 0 L 3.4375 0 L 3.4375 -4.296875 L 17.359375 -18.390625 C 20.347656 -21.429688 22.585938 -23.828125 24.078125 -25.578125 C 25.566406 -27.328125 26.679688 -29.03125 27.421875 -30.6875 C 28.171875 -32.351562 28.546875 -34.1875 28.546875 -36.1875 C 28.546875 -38.65625 27.8125 -40.691406 26.34375 -42.296875 C 24.882812 -43.898438 22.691406 -44.703125 19.765625 -44.703125 C 16.785156 -44.703125 14.453125 -43.867188 12.765625 -42.203125 C 11.078125 -40.546875 10.234375 -38.171875 10.234375 -35.078125 C 10.234375 -33.640625 10.460938 -31.863281 10.921875 -29.75 L 5.078125 -29.75 C 4.554688 -31.582031 4.296875 -33.382812 4.296875 -35.15625 C 4.296875 -39.457031 5.769531 -42.882812 8.71875 -45.4375 C 11.675781 -47.988281 15.644531 -49.265625 20.625 -49.265625 C 25.039062 -49.265625 28.523438 -48.113281 31.078125 -45.8125 C 33.628906 -43.519531 34.90625 -40.539062 34.90625 -36.875 C 34.90625 -34.53125 34.390625 -32.3125 33.359375 -30.21875 C 32.328125 -28.125 30.921875 -26.054688 29.140625 -24.015625 C 27.367188 -21.984375 24.734375 -19.222656 21.234375 -15.734375 L 10.40625 -4.8125 L 29.578125 -4.8125 L 29.578125 -14.015625 L 35.25 -14.015625 Z M 35.328125 0 "/></g></g></g><g fill="#684915" fill-opacity="1"><g transform="translate(1279.505927, 524.002172)"><g><path d="M 23.046875 0.953125 C 17.140625 0.953125 12.679688 -1.207031 9.671875 -5.53125 C 6.660156 -9.863281 5.15625 -16.160156 5.15625 -24.421875 C 5.15625 -32.265625 6.671875 -38.363281 9.703125 -42.71875 C 12.742188 -47.082031 17.191406 -49.265625 23.046875 -49.265625 C 28.890625 -49.265625 33.328125 -47.082031 36.359375 -42.71875 C 39.398438 -38.363281 40.921875 -32.265625 40.921875 -24.421875 C 40.921875 -16.160156 39.414062 -9.863281 36.40625 -5.53125 C 33.394531 -1.207031 28.941406 0.953125 23.046875 0.953125 Z M 23.046875 -3.609375 C 26.765625 -3.609375 29.613281 -5.382812 31.59375 -8.9375 C 33.570312 -12.488281 34.5625 -17.648438 34.5625 -24.421875 C 34.5625 -31.003906 33.570312 -36.03125 31.59375 -39.5 C 29.613281 -42.96875 26.765625 -44.703125 23.046875 -44.703125 C 19.316406 -44.703125 16.460938 -42.96875 14.484375 -39.5 C 12.503906 -36.03125 11.515625 -31.003906 11.515625 -24.421875 C 11.515625 -17.648438 12.503906 -12.488281 14.484375 -8.9375 C 16.460938 -5.382812 19.316406 -3.609375 23.046875 -3.609375 Z M 23.046875 -3.609375 "/></g></g></g><g fill="#684915" fill-opacity="1"><g transform="translate(1321.974345, 524.002172)"><g><path d="M 35.328125 0 L 3.4375 0 L 3.4375 -4.296875 L 17.359375 -18.390625 C 20.347656 -21.429688 22.585938 -23.828125 24.078125 -25.578125 C 25.566406 -27.328125 26.679688 -29.03125 27.421875 -30.6875 C 28.171875 -32.351562 28.546875 -34.1875 28.546875 -36.1875 C 28.546875 -38.65625 27.8125 -40.691406 26.34375 -42.296875 C 24.882812 -43.898438 22.691406 -44.703125 19.765625 -44.703125 C 16.785156 -44.703125 14.453125 -43.867188 12.765625 -42.203125 C 11.078125 -40.546875 10.234375 -38.171875 10.234375 -35.078125 C 10.234375 -33.640625 10.460938 -31.863281 10.921875 -29.75 L 5.078125 -29.75 C 4.554688 -31.582031 4.296875 -33.382812 4.296875 -35.15625 C 4.296875 -39.457031 5.769531 -42.882812 8.71875 -45.4375 C 11.675781 -47.988281 15.644531 -49.265625 20.625 -49.265625 C 25.039062 -49.265625 28.523438 -48.113281 31.078125 -45.8125 C 33.628906 -43.519531 34.90625 -40.539062 34.90625 -36.875 C 34.90625 -34.53125 34.390625 -32.3125 33.359375 -30.21875 C 32.328125 -28.125 30.921875 -26.054688 29.140625 -24.015625 C 27.367188 -21.984375 24.734375 -19.222656 21.234375 -15.734375 L 10.40625 -4.8125 L 29.578125 -4.8125 L 29.578125 -14.015625 L 35.25 -14.015625 Z M 35.328125 0 "/></g></g></g><g fill="#684915" fill-opacity="1"><g transform="translate(1357.651297, 524.002172)"><g><path d="M 23.046875 0.953125 C 17.140625 0.953125 12.679688 -1.207031 9.671875 -5.53125 C 6.660156 -9.863281 5.15625 -16.160156 5.15625 -24.421875 C 5.15625 -32.265625 6.671875 -38.363281 9.703125 -42.71875 C 12.742188 -47.082031 17.191406 -49.265625 23.046875 -49.265625 C 28.890625 -49.265625 33.328125 -47.082031 36.359375 -42.71875 C 39.398438 -38.363281 40.921875 -32.265625 40.921875 -24.421875 C 40.921875 -16.160156 39.414062 -9.863281 36.40625 -5.53125 C 33.394531 -1.207031 28.941406 0.953125 23.046875 0.953125 Z M 23.046875 -3.609375 C 26.765625 -3.609375 29.613281 -5.382812 31.59375 -8.9375 C 33.570312 -12.488281 34.5625 -17.648438 34.5625 -24.421875 C 34.5625 -31.003906 33.570312 -36.03125 31.59375 -39.5 C 29.613281 -42.96875 26.765625 -44.703125 23.046875 -44.703125 C 19.316406 -44.703125 16.460938 -42.96875 14.484375 -39.5 C 12.503906 -36.03125 11.515625 -31.003906 11.515625 -24.421875 C 11.515625 -17.648438 12.503906 -12.488281 14.484375 -8.9375 C 16.460938 -5.382812 19.316406 -3.609375 23.046875 -3.609375 Z M 23.046875 -3.609375 "/></g></g></g><path fill="#ffffff" d="M 892.082031 198.117188 C 885.75 205.550781 879.417969 212.980469 873.085938 220.410156 " fill-opacity="1" fill-rule="nonzero"/><path fill="#684915" d="M 1005.644531 252.308594 C 1005.5625 252.292969 1005.492188 252.292969 1005.421875 252.292969 C 1005.503906 252.335938 1005.617188 252.363281 1005.71875 252.390625 C 1005.6875 252.363281 1005.675781 252.335938 1005.644531 252.308594 Z M 1005.644531 252.308594 " fill-opacity="1" fill-rule="nonzero"/><path fill="#684915" d="M 873.890625 157.902344 C 875.46875 157.707031 877.089844 157.761719 878.683594 158.085938 C 879.472656 158.269531 880.265625 158.46875 881.027344 158.804688 L 882.167969 159.257812 L 883.265625 159.835938 C 886.199219 161.414062 888.710938 163.839844 890.867188 166.519531 C 892.914062 169.3125 894.660156 172.398438 895.902344 175.710938 L 896.367188 176.953125 L 896.761719 178.222656 C 897.015625 179.066406 897.296875 179.914062 897.480469 180.789062 C 897.875 182.523438 898.171875 184.285156 898.355469 186.0625 C 898.355469 186.089844 898.339844 186.132812 898.3125 186.132812 C 898.285156 186.132812 898.257812 186.117188 898.242188 186.089844 C 896.804688 179.222656 894.140625 172.636719 890.035156 167.324219 C 888.003906 164.671875 885.59375 162.34375 882.859375 160.667969 C 880.125 158.988281 877.035156 158.003906 873.890625 158.03125 C 873.863281 158.03125 873.835938 158.003906 873.835938 157.972656 C 873.835938 157.929688 873.863281 157.902344 873.890625 157.902344 Z M 873.890625 157.902344 " fill-opacity="1" fill-rule="nonzero"/><g clip-path="url(#add312dc45)"><path fill="#684915" d="M 856.53125 175.640625 C 857.449219 175.347656 858.367188 175.0625 859.296875 174.824219 L 862.128906 174.316406 C 863.089844 174.261719 864.046875 174.203125 865.007812 174.175781 C 865.964844 174.21875 866.925781 174.230469 867.882812 174.316406 C 871.71875 174.695312 875.46875 175.9375 878.980469 177.6875 C 882.4375 179.574219 885.691406 181.957031 888.457031 184.960938 C 889.121094 185.738281 889.796875 186.5 890.429688 187.304688 C 891.035156 188.136719 891.65625 188.953125 892.234375 189.800781 L 893.800781 192.492188 C 894.265625 193.421875 894.703125 194.367188 895.140625 195.3125 C 895.15625 195.339844 895.140625 195.382812 895.125 195.398438 C 895.097656 195.410156 895.070312 195.398438 895.054688 195.382812 C 891.21875 188.121094 885.339844 182.324219 878.53125 178.816406 C 871.761719 175.261719 863.949219 173.964844 856.546875 175.78125 C 856.519531 175.796875 856.492188 175.769531 856.476562 175.742188 C 856.492188 175.683594 856.519531 175.65625 856.53125 175.640625 Z M 856.53125 175.640625 " fill-opacity="1" fill-rule="nonzero"/></g><path fill="#684915" d="M 966.023438 119.734375 C 971.140625 90.472656 984.636719 62.511719 1004.136719 39.402344 C 1004.519531 38.921875 1004.925781 38.457031 1005.320312 38.007812 C 1005.308594 37.949219 1005.308594 37.894531 1005.292969 37.835938 C 1005.222656 37.285156 1005.125 36.738281 1005.027344 36.203125 C 1004.632812 36.652344 1004.222656 37.105469 1003.828125 37.570312 C 983.75 61.046875 969.84375 89.601562 964.628906 119.492188 C 959.820312 146.988281 962.398438 175.332031 971.496094 201.277344 C 974.214844 207.144531 977.121094 212.867188 980.238281 218.464844 C 965.417969 188.289062 960.128906 153.378906 966.023438 119.734375 Z M 978.925781 218.957031 C 981.152344 223.542969 983.605469 228.011719 986.300781 232.355469 C 986.792969 232.832031 987.300781 233.285156 987.796875 233.75 C 984.664062 228.957031 981.71875 224.007812 978.925781 218.957031 Z M 978.925781 218.957031 " fill-opacity="1" fill-rule="nonzero"/><g clip-path="url(#1b95c4622e)"><path fill="#684915" d="M 1184.371094 237.429688 C 1184.992188 232.085938 1182.523438 226.078125 1178.335938 222.808594 C 1173.894531 219.3125 1168.351562 217.621094 1162.980469 215.96875 C 1159.964844 215.054688 1156.859375 214.109375 1153.984375 212.839844 C 1148.765625 210.554688 1144.285156 206.210938 1142.578125 201.796875 C 1141.476562 198.921875 1141.503906 196.160156 1142.675781 193.550781 C 1147.894531 181.886719 1143.707031 167.421875 1133.128906 160.625 C 1128.207031 157.453125 1122.230469 156.167969 1116.335938 156.632812 C 1118.988281 128.335938 1110.019531 99.1875 1090.390625 78.925781 C 1082.578125 70.859375 1080.957031 58.929688 1080.367188 47.269531 L 1080.222656 44.167969 C 1079.746094 33.535156 1079.238281 22.566406 1073.921875 13.402344 C 1070.507812 7.535156 1064.277344 2.867188 1057.707031 1.261719 C 1052.417969 -0.0390625 1047.414062 0.667969 1043.265625 3.304688 C 1028.96875 12.355469 1016.082031 23.523438 1005.027344 36.214844 C 1005.125 36.75 1005.222656 37.300781 1005.292969 37.851562 C 1005.308594 37.90625 1005.308594 37.964844 1005.320312 38.019531 C 1016.460938 25.074219 1029.503906 13.683594 1044.015625 4.503906 C 1047.847656 2.078125 1052.460938 1.414062 1057.367188 2.628906 C 1057.566406 2.671875 1057.734375 2.710938 1057.929688 2.769531 C 1063.953125 4.417969 1069.578125 8.71875 1072.695312 14.105469 C 1077.839844 22.988281 1078.335938 33.789062 1078.828125 44.222656 L 1078.96875 47.339844 C 1079.546875 58.707031 1081.238281 71.480469 1089.390625 79.914062 C 1108.792969 99.949219 1117.621094 128.800781 1114.925781 156.773438 C 1108.664062 157.566406 1102.589844 160.300781 1098.074219 164.839844 C 1066.871094 196.144531 1034.652344 228.503906 1002.65625 248.964844 C 1001.515625 247.738281 1000.371094 246.484375 999.1875 245.242188 C 1016.109375 220.722656 1033.339844 194.890625 1050.0625 169.832031 C 1058.578125 157.058594 1067.394531 143.859375 1072.441406 128.699219 C 1078.152344 111.640625 1077.800781 94.816406 1071.480469 81.351562 C 1064.050781 65.503906 1047.625 55.898438 1033.285156 59 C 1027.726562 60.199219 1021.46875 58.734375 1016.109375 54.984375 C 1010.273438 50.894531 1006.253906 44.5625 1005.308594 38.007812 C 1004.898438 38.472656 1004.503906 38.921875 1004.125 39.402344 C 1005.394531 45.957031 1009.410156 51.992188 1015.292969 56.125 C 1020.972656 60.101562 1027.628906 61.667969 1033.578125 60.371094 C 1047.300781 57.410156 1063.050781 66.6875 1070.199219 81.945312 C 1076.277344 94.875 1076.601562 111.765625 1071.101562 128.25 C 1066.09375 143.226562 1057.339844 156.339844 1048.824219 169.097656 C 1032.210938 194 1015.023438 219.71875 998.171875 244.15625 C 996.339844 242.238281 994.464844 240.320312 992.546875 238.417969 C 988.160156 231.988281 984.042969 225.316406 980.238281 218.453125 C 977.121094 212.867188 974.214844 207.128906 971.496094 201.261719 C 963.175781 183.339844 956.746094 164.304688 952.445312 144.707031 C 944.324219 107.664062 944 69.378906 951.484375 33.960938 C 954.121094 21.410156 966.261719 11.960938 978.488281 12.894531 C 979.957031 13.003906 981.378906 13.257812 982.804688 13.65625 C 993.195312 16.503906 1002.121094 26.359375 1003.828125 37.570312 C 1004.222656 37.105469 1004.617188 36.652344 1005.027344 36.203125 C 1002.515625 23.144531 991.195312 12.441406 978.617188 11.484375 C 965.683594 10.511719 952.910156 20.464844 950.105469 33.675781 C 942.574219 69.296875 942.914062 107.789062 951.078125 145.03125 C 956.800781 171.085938 966.261719 196.1875 978.925781 218.988281 C 981.730469 224.035156 984.679688 228.984375 987.796875 233.777344 C 987.316406 233.3125 986.808594 232.847656 986.300781 232.382812 C 964.65625 212.007812 939.585938 194.339844 921.394531 190.304688 C 917.6875 189.488281 902.019531 187.527344 899.144531 193.929688 C 896.578125 199.597656 900.386719 204.902344 910.425781 209.625 C 931.6875 219.691406 971.863281 241.308594 1001.925781 273.078125 C 1027.601562 300.21875 1045.140625 336.304688 1051.332031 374.671875 L 1052.726562 374.558594 C 1052.347656 333.230469 1037.570312 291.492188 1012.148438 260.019531 C 1010.695312 258.214844 1009.171875 256.394531 1007.605469 254.578125 C 1012.257812 256.210938 1016.96875 257.679688 1021.761719 258.992188 C 1072.679688 272.90625 1129.800781 268.351562 1178.632812 245.804688 C 1181.890625 244.296875 1183.921875 241.324219 1184.371094 237.429688 Z M 1099.078125 165.800781 C 1103.222656 161.625 1108.917969 159.058594 1114.785156 158.269531 C 1113.191406 172.566406 1108.609375 186.597656 1100.867188 199.0625 C 1078.773438 234.667969 1032.929688 254.902344 1004.238281 250.699219 L 1003.601562 249.996094 C 1035.667969 229.449219 1067.886719 197.101562 1099.078125 165.800781 Z M 1011.03125 260.878906 C 1034.300781 289.703125 1048.609375 327.195312 1050.964844 365.039062 C 1043.5625 329.917969 1026.710938 297.203125 1002.9375 272.074219 C 972.722656 240.136719 932.378906 218.421875 911.03125 208.339844 C 901.683594 203.925781 898.214844 199.402344 900.414062 194.496094 C 902.570312 189.6875 915.894531 190.519531 921.085938 191.660156 C 921.707031 191.800781 922.355469 191.957031 923.003906 192.140625 C 938.9375 196.496094 964.8125 213.105469 989.261719 237.007812 C 989.894531 237.613281 990.542969 238.261719 991.195312 238.898438 C 992.5625 240.265625 993.914062 241.648438 995.253906 243.058594 C 996.296875 244.128906 997.355469 245.226562 998.382812 246.355469 C 999.414062 247.457031 1000.445312 248.570312 1001.457031 249.710938 L 1002.035156 250.359375 C 1002.164062 250.488281 1002.289062 250.628906 1002.417969 250.769531 L 1002.953125 251.390625 C 1003.152344 251.601562 1003.347656 251.8125 1003.53125 252.054688 C 1003.984375 252.574219 1004.460938 253.097656 1004.914062 253.632812 C 1007 255.972656 1009.042969 258.414062 1011.03125 260.878906 Z M 1178.039062 244.523438 C 1124.203125 269.382812 1060.1875 272.230469 1005.71875 252.378906 C 1005.617188 252.347656 1005.519531 252.320312 1005.421875 252.277344 C 1005.492188 252.277344 1005.5625 252.292969 1005.648438 252.292969 C 1034.878906 255.59375 1080.097656 235.21875 1102.050781 199.78125 C 1109.949219 187.050781 1114.617188 172.707031 1116.195312 158.101562 C 1121.917969 157.605469 1127.699219 158.777344 1132.367188 161.78125 C 1142.195312 168.113281 1146.257812 182.101562 1141.378906 192.957031 C 1140.066406 195.875 1140.039062 199.089844 1141.265625 202.277344 C 1143.128906 207.101562 1147.78125 211.625 1153.40625 214.109375 C 1156.351562 215.390625 1159.511719 216.378906 1162.558594 217.296875 C 1168.042969 218.988281 1173.21875 220.566406 1177.460938 223.894531 C 1181.269531 226.882812 1183.523438 232.367188 1182.945312 237.234375 C 1182.59375 240.644531 1180.832031 243.226562 1178.039062 244.523438 Z M 1178.039062 244.523438 " fill-opacity="1" fill-rule="nonzero"/></g></svg>